# This file uses centimeters as units for non-parametric coordinates.

mtllib Mushroom.mtl
g default
v -0.500000 -0.500000 0.500000
v 0.500000 -0.500000 0.500000
v -0.500000 0.500000 0.500000
v 0.500000 0.500000 0.500000
v -0.500000 0.500000 -0.500000
v 0.500000 0.500000 -0.500000
v -0.500000 -0.500000 -0.500000
v 0.500000 -0.500000 -0.500000
v -0.500000 3.214324 0.500000
v 0.500000 3.214324 0.500000
v 0.500000 3.214324 -0.500000
v -0.500000 3.214324 -0.500000
v 1.849231 1.661283 -1.849231
v 1.849231 1.661283 1.849231
v -1.849231 1.661283 1.849231
v -1.849231 1.661283 -1.849231
v 1.382562 2.557484 -1.382562
v 1.382562 2.557484 1.382562
v -1.382562 2.557484 1.382562
v -1.382562 2.557484 -1.382562
v 2.118449 0.902148 -2.118449
v 2.118449 0.902148 2.118449
v -2.118449 0.902148 2.118449
v -2.118449 0.902148 -2.118449
v 0.772233 1.054482 0.772233
v -0.772233 1.054482 0.772233
v -0.772233 1.054482 -0.772233
v 0.772233 1.054482 -0.772233
v 1.674475 2.810920 -0.070493
v 2.239676 1.725495 -0.098992
v 2.565737 0.806077 -0.115433
v 0.935282 0.990574 -0.033221
v 0.605570 0.319019 -0.016596
v 0.605570 -0.500226 -0.016596
v -0.605570 -0.500226 -0.016596
v -0.605570 0.319019 -0.016596
v -0.935282 0.990574 -0.033221
v -2.565737 0.806077 -0.115433
v -2.239676 1.725495 -0.098992
v -1.674475 2.810920 -0.070493
v -0.605570 3.267121 -0.016596
v 0.605570 3.267121 -0.016596
v 0.010942 3.351430 0.584653
v 0.013252 3.429254 -0.021766
v 0.010942 3.351430 -0.584653
v 0.042050 2.760706 -1.616638
v 0.058499 1.712773 -2.162317
v 0.067988 0.825111 -2.477116
v 0.020538 1.003236 -0.902977
v 0.010942 0.354877 -0.584653
v 0.010942 -0.485347 -0.584653
v 0.013252 -0.605087 -0.021766
v 0.010942 -0.422535 0.584653
v 0.010942 0.354877 0.584653
v 0.020538 1.003236 0.902977
v 0.067988 0.825111 2.477116
v 0.058499 1.712773 2.162317
v 0.042050 2.760706 1.616638
v -0.614502 -0.337501 -0.614502
v -0.744248 -0.374162 -0.020397
v -0.614502 -0.337501 0.614502
v 0.013448 -0.287100 0.718541
v 0.614502 -0.337501 0.614502
v 0.744248 -0.374162 -0.020397
v 0.614502 -0.337501 -0.614502
v 0.013448 -0.351654 -0.718541
vt 0.669708 0.117452
vt 0.696181 0.148536
vt 0.656682 0.187859
vt 0.615907 0.156295
vt 0.293552 0.344178
vt 0.297627 0.299642
vt 0.336525 0.303081
vt 0.330223 0.341160
vt 0.576733 0.069356
vt 0.827104 0.269143
vt 0.839674 0.210441
vt 0.888986 0.215477
vt 0.655581 0.032475
vt 0.841104 0.195324
vt 0.711668 0.051866
vt 0.665852 0.070790
vt 0.763859 0.189031
vt 0.797913 0.208212
vt 0.778605 0.271963
vt 0.737773 0.242688
vt 0.652869 0.076027
vt 0.603072 0.105173
vt 0.321882 0.809097
vt 0.567457 0.187443
vt 0.763949 0.327792
vt 0.713771 0.295934
vt 0.522131 0.068502
vt 0.822842 0.327173
vt 0.376490 0.714365
vt 0.323556 0.081898
vt 0.480088 0.145319
vt 0.416251 0.199406
vt 0.312236 0.175395
vt 0.111479 0.455538
vt 0.079299 0.276609
vt 0.171122 0.286416
vt 0.175751 0.401278
vt 0.450628 0.485113
vt 0.285842 0.520768
vt 0.290649 0.426541
vt 0.396926 0.420722
vt 0.513173 0.313867
vt 0.421279 0.307895
vt 0.301051 0.256887
vt 0.336685 0.266079
vt 0.255687 0.296137
vt 0.255447 0.334717
vt 0.454551 0.990703
vt 0.603849 0.913650
vt 0.182000 0.664518
vt 0.000000 0.268469
vt 0.517514 0.578174
vt 0.281070 0.603112
vt 0.591222 0.743788
vt 0.140326 0.116572
vt 0.194382 0.180794
vt 0.268342 1.000000
vt 0.652971 0.274489
vt 0.686355 0.227779
vt 0.725050 0.174580
vt 0.706910 0.137648
vt 0.684921 0.107151
vt 0.261882 0.259674
vt 0.803252 0.190933
vt 0.770055 0.175561
vt 0.735363 0.159566
vt 0.197407 0.845139
vt 0.059292 0.499707
vt 0.592610 0.319367
vt 0.531995 0.101494
vt 0.349566 0.582771
vt 0.494587 0.537131
vt 0.332888 0.000000
vt 0.096715 0.064126
vt 0.616558 0.227536
vt 0.316113 0.743761
vt 0.464804 0.772315
vt 0.469761 0.834418
vt 0.547093 0.126563
vt 0.438330 0.712302
vt 0.414604 0.862458
vt 0.347535 0.865868
vt 0.635541 0.032268
vt 0.870918 0.281714
vt 0.889270 0.333371
vt 0.729058 0.100783
vt 0.764628 0.077869
vt 0.692948 0.008520
vt 0.733956 0.000000
vt 0.757553 0.034201
vt 0.882772 0.197228
vn -0.136848 0.018765 0.990414
vn 0.000453 0.020769 0.999784
vn -0.001056 -0.109216 0.994018
vn -0.196834 -0.226799 0.953844
vn -0.265917 0.963995 0.001367
vn 0.000566 1.000000 -0.000667
vn -0.001233 0.988437 -0.151630
vn -0.264094 0.953520 -0.145103
vn -0.192409 -0.222742 -0.955701
vn -0.001015 -0.106374 -0.994326
vn 0.000381 0.004683 -0.999989
vn -0.143142 0.035103 -0.989079
vn -0.088640 -0.988553 -0.122093
vn -0.000498 -0.992411 -0.122964
vn 0.000127 -0.999689 0.024957
vn -0.061399 -0.997720 0.028005
vn 0.999998 0.001675 -0.000638
vn 0.981552 0.039962 -0.186973
vn 0.936790 -0.241149 -0.253518
vn 0.995087 -0.098981 0.002065
vn -0.981552 0.039962 -0.186973
vn -0.999998 0.001675 -0.000638
vn -0.995087 -0.098981 0.002065
vn -0.936790 -0.241149 -0.253518
vn -0.000038 -0.999816 0.019185
vn -0.042374 -0.998522 -0.034044
vn -0.037386 -0.997707 -0.056425
vn 0.010511 -0.999945 0.000062
vn -0.042374 -0.998522 0.034044
vn -0.000038 -0.999816 -0.019185
vn -0.010511 -0.999945 0.000062
vn 0.037386 -0.997707 -0.056425
vn 0.901665 0.432435 -0.000558
vn 0.884217 0.414063 -0.216131
vn 0.758471 0.603696 -0.245505
vn 0.728969 0.684547 0.000111
vn -0.161065 0.405990 0.899572
vn 0.000282 0.426616 0.904433
vn 0.000282 0.668540 0.743676
vn -0.193823 0.586132 0.786690
vn -0.884217 0.414063 -0.216131
vn -0.901665 0.432435 -0.000558
vn -0.728968 0.684547 0.000111
vn -0.758471 0.603696 -0.245505
vn 0.000282 0.426616 -0.904433
vn -0.161065 0.405990 -0.899573
vn -0.193823 0.586132 -0.786690
vn 0.000282 0.668540 -0.743676
vn 0.413205 0.910621 0.005587
vn 0.392320 0.888404 -0.238376
vn -0.003729 0.884567 0.466398
vn -0.226629 0.859051 0.458989
vn -0.413205 0.910621 0.005587
vn -0.392320 0.888404 -0.238376
vn -0.226629 0.859051 -0.458989
vn -0.003729 0.884567 -0.466398
vn 0.668980 -0.743277 -0.002096
vn 0.772633 -0.593786 -0.224625
vn -0.170085 -0.559575 0.811139
vn 0.001075 -0.744321 0.667821
vn -0.772633 -0.593785 -0.224625
vn -0.668980 -0.743277 -0.002096
vn 0.001075 -0.744321 -0.667821
vn -0.170085 -0.559575 -0.811139
vn 0.891804 0.408056 0.195386
vn 0.772282 0.594763 0.223243
vn 0.792208 -0.574931 0.204599
vn -0.035519 -0.998029 0.051726
vn 0.942898 -0.235625 0.235424
vn 0.983659 0.039821 0.175584
vn -0.000209 -0.986467 0.163959
vn -0.035425 -0.985872 0.163714
vn -0.983659 0.039821 0.175584
vn -0.942898 -0.235625 0.235424
vn 0.035519 -0.998029 0.051726
vn -0.792208 -0.574932 0.204598
vn -0.891804 0.408056 0.195386
vn -0.772282 0.594763 0.223243
vn -0.410930 0.884609 0.220462
vn -0.262568 0.955385 0.135267
vn -0.001186 0.989968 0.141285
vn 0.410930 0.884609 0.220462
vn 0.273524 0.952057 0.137011
vn 0.277090 0.960843 0.001411
vn 0.275123 0.950108 -0.146980
vn 0.205488 0.590827 -0.780191
vn 0.238319 0.861777 -0.447822
vn 0.171149 0.409059 -0.896314
vn 0.180140 -0.569304 -0.802149
vn 0.044703 -0.998387 0.034991
vn 0.201824 -0.225638 -0.953076
vn 0.149296 0.035032 -0.988172
vn 0.092631 -0.988094 -0.122843
vn 0.064170 -0.997551 0.027817
vn 0.037028 -0.985766 0.163996
vn 0.142623 0.017836 0.989616
vn 0.206460 -0.229751 0.951099
vn 0.044703 -0.998387 -0.034991
vn 0.180140 -0.569304 0.802149
vn 0.171149 0.409059 0.896314
vn 0.205488 0.590827 0.780191
vn 0.238319 0.861777 0.447822
vn -0.702690 -0.689115 -0.177050
vn -0.716394 -0.697695 0.001533
vn -0.708564 -0.685658 0.166764
vn -0.052371 -0.651017 0.757254
vn -0.000250 -0.652395 0.757879
vn 0.054445 -0.651933 0.756319
vn 0.708564 -0.685658 0.166763
vn 0.716394 -0.697694 0.001533
vn 0.702691 -0.689115 -0.177050
vn -0.000748 -0.670556 -0.741858
vn 0.126882 -0.666324 -0.734788
vn -0.121872 -0.664429 -0.737347
s 1
g pCube1
usemtl initialShadingGroup
f 61/1/1 62/2/2 54/3/3 3/4/4
s 2
f 41/5/5 44/6/6 45/7/7 12/8/8
s 3
f 5/84/9 50/10/10 66/11/11 59/12/12
s 4
f 7/13/13 51/88/14 52/15/15 35/16/16
s 5
f 64/17/17 65/18/18 6/19/19 33/20/20
s 6
f 59/83/21 60/21/22 36/22/23 5/9/24
s 1
f 3/4/4 54/3/3 55/75/25 26/24/26
s 5
f 33/20/20 6/19/19 28/25/27 32/26/28
s 3
f 50/10/10 5/84/9 27/85/29 49/28/30
s 6
f 5/9/24 36/22/23 37/79/31 27/27/32
s 5
f 30/30/33 13/31/34 17/32/35 29/33/36
s 1
f 15/34/37 57/35/38 58/36/39 19/37/40
s 6
f 16/38/41 39/39/42 40/40/43 20/41/44
s 3
f 47/42/45 16/38/46 20/41/47 46/43/48
s 5
f 42/44/49 29/33/36 17/32/35 11/45/50
s 1
f 19/37/40 58/36/39 43/46/51 9/47/52
s 6
f 20/41/44 40/40/43 41/5/53 12/8/54
s 3
f 46/43/48 20/41/47 12/8/55 45/7/56
s 5
f 31/73/57 21/70/58 13/31/34 30/30/33
s 1
f 23/68/59 56/51/60 57/35/38 15/34/37
s 6
f 24/72/61 38/53/62 39/39/42 16/38/41
s 3
f 48/69/63 24/72/64 16/38/46 47/42/45
s 1
f 26/76/26 55/23/25 56/67/60 23/50/59
s 6
f 27/80/32 37/29/31 38/71/62 24/52/61
s 3
f 49/77/30 27/80/29 24/52/64 48/54/63
s 5
f 32/81/28 28/78/27 21/49/58 31/48/57
f 14/55/65 30/30/33 29/33/36 18/56/66
f 22/74/67 31/73/57 30/30/33 14/55/65
f 25/82/68 32/81/28 31/48/57 22/57/67
f 4/59/69 33/20/20 32/26/28 25/58/68
f 63/60/70 64/17/17 33/20/20 4/59/69
s 4
f 35/16/16 52/15/15 53/86/71 1/62/72
s 6
f 36/22/23 60/21/22 61/1/73 3/4/74
f 37/79/31 36/22/23 3/4/74 26/24/75
f 38/71/62 37/29/31 26/76/75 23/50/76
f 39/39/42 38/53/62 23/68/76 15/34/77
f 40/40/43 39/39/42 15/34/77 19/37/78
f 41/5/53 40/40/43 19/37/78 9/47/79
s 2
f 9/47/80 43/46/81 44/6/6 41/5/5
s 5
f 18/56/66 29/33/36 42/44/49 10/63/82
s 2
f 43/46/81 10/63/83 42/44/84 44/6/6
f 45/7/7 44/6/6 42/44/84 11/45/85
s 3
f 17/32/86 46/43/48 45/7/56 11/45/87
f 13/31/88 47/42/45 46/43/48 17/32/86
f 21/70/89 48/69/63 47/42/45 13/31/88
f 28/78/90 49/77/30 48/54/63 21/49/89
f 6/19/91 50/10/10 49/28/30 28/25/90
f 66/11/11 50/10/10 6/19/91 65/18/92
s 4
f 52/15/15 51/88/14 8/89/93 34/90/94
f 53/86/71 52/15/15 34/90/94 2/87/95
s 1
f 54/3/3 62/2/2 63/60/96 4/59/97
f 55/75/25 54/3/3 4/59/97 25/58/98
f 56/67/60 55/23/25 25/82/98 22/57/99
f 57/35/38 56/51/60 22/74/99 14/55/100
f 58/36/39 57/35/38 14/55/100 18/56/101
f 43/46/51 58/36/39 18/56/101 10/63/102
s 6
f 7/13/103 35/16/104 60/21/22 59/83/21
f 61/1/73 60/21/22 35/16/104 1/62/105
s 1
f 1/62/106 53/61/107 62/2/2 61/1/1
f 63/60/96 62/2/2 53/61/107 2/66/108
s 5
f 2/66/109 34/65/110 64/17/17 63/60/70
f 34/65/110 8/64/111 65/18/18 64/17/17
s 3
f 51/14/112 66/11/11 65/18/92 8/64/113
f 59/12/12 66/11/11 51/14/112 7/91/114
